<?xml version="1.0" standalone="no"?>
<!DOCTYPE svg PUBLIC "-//W3C//DTD SVG 20010904//EN"
 "http://www.w3.org/TR/2001/REC-SVG-20010904/DTD/svg10.dtd">
<svg version="1.0" xmlns="http://www.w3.org/2000/svg"
 width="400.000000pt" height="400.000000pt" viewBox="0 0 400.000000 400.000000"
 preserveAspectRatio="xMidYMid meet">

<g transform="translate(0.000000,400.000000) scale(0.100000,-0.100000)"
fill="#00005f" stroke="none">
<path d="M1710 3974 c-344 -52 -665 -188 -945 -403 -97 -74 -258 -236 -343
-345 -197 -252 -322 -525 -388 -846 -26 -125 -28 -153 -28 -375 -1 -252 10
-341 64 -538 174 -631 668 -1148 1295 -1356 212 -70 404 -101 635 -101 231 0
423 31 635 101 683 227 1190 802 1330 1511 33 164 44 434 26 598 -104 909
-802 1623 -1712 1755 -134 19 -438 18 -569 -1z m1149 -263 c11 -7 13 -43 9
-185 -2 -96 -7 -178 -10 -181 -3 -3 -13 -3 -22 1 -12 5 -16 20 -16 64 l0 58
-65 28 -66 27 -37 -36 c-38 -37 -72 -48 -72 -25 0 15 240 258 255 258 5 0 16
-4 24 -9z m322 -374 c-17 -85 -31 -158 -31 -163 0 -5 42 34 94 85 72 71 98 92
112 87 15 -6 -4 -29 -101 -126 -66 -66 -125 -120 -131 -120 -24 0 -23 33 6
177 16 81 27 149 24 152 -2 3 -45 -35 -94 -84 -71 -71 -92 -87 -102 -77 -10
10 12 37 107 132 156 156 160 154 116 -63z m-2431 98 c-10 -12 -16 -13 -26 -4
-8 6 -14 17 -14 24 0 19 23 25 39 9 12 -11 12 -16 1 -29z m1388 14 c474 -51
870 -303 1112 -709 146 -246 218 -567 192 -859 -32 -350 -173 -652 -422 -901
-208 -209 -419 -327 -720 -401 -83 -20 -120 -23 -295 -24 -225 0 -279 8 -455
65 -223 72 -404 184 -570 350 -418 417 -540 1028 -317 1580 202 497 670 845
1207 899 123 12 160 12 268 0z m-1248 -165 c78 -98 90 -118 79 -130 -15 -14
-16 -12 -153 163 -42 55 -52 83 -27 83 4 0 50 -52 101 -116z m-309 -224 c61
-49 114 -90 119 -90 6 0 86 89 107 119 2 3 8 0 15 -7 12 -12 -12 -52 -81 -131
l-38 -43 -131 107 c-87 71 -129 111 -125 121 3 8 9 14 15 14 5 0 58 -40 119
-90z m2987 18 c7 -7 12 -17 12 -24 0 -6 -47 -77 -103 -157 -79 -111 -107 -143
-115 -135 -17 17 -15 25 19 73 l32 44 -39 61 c-39 61 -39 61 -79 56 -23 -3
-49 -8 -58 -12 -16 -6 -36 20 -25 31 4 4 312 71 339 74 3 1 10 -4 17 -11z
m-3200 -205 c-2 -21 -10 -29 -34 -35 -33 -8 -64 -55 -64 -96 0 -18 24 -52 36
-52 18 0 47 28 88 84 58 78 88 94 139 72 45 -18 71 -66 64 -117 -3 -20 0 -42
6 -48 8 -8 6 -11 -6 -11 -9 0 -17 -4 -17 -9 0 -39 -116 -109 -140 -85 -17 17
0 54 26 54 61 0 110 105 69 150 -27 29 -40 25 -82 -27 -77 -95 -98 -113 -137
-113 -75 0 -110 84 -72 173 17 42 70 87 102 87 22 0 25 -4 22 -27z m3398 -200
c28 -97 30 -147 5 -187 -41 -66 -169 -104 -244 -72 -21 9 -46 31 -57 48 -19
31 -58 174 -49 181 4 3 305 84 321 86 4 1 14 -25 24 -56z m-3616 -251 c0 -25
-7 -31 -31 -25 -29 8 -25 43 6 43 18 0 25 -5 25 -18z m238 -13 c78 -9 116 -17
119 -26 3 -8 3 -16 0 -19 -3 -3 -73 2 -156 12 -138 16 -151 19 -151 37 0 17 5
19 38 14 20 -4 88 -12 150 -18z m3430 -149 c44 -27 76 -98 69 -153 -19 -143
-234 -189 -314 -68 -30 44 -31 122 -3 168 42 69 175 97 248 53z m-3648 -41 c0
-12 -13 -34 -30 -49 -23 -22 -30 -37 -30 -67 0 -52 19 -78 52 -70 19 5 31 23
57 92 19 47 43 92 55 100 33 24 82 19 117 -13 27 -24 32 -37 39 -97 4 -39 4
-72 1 -75 -4 -3 -15 -18 -25 -33 -14 -24 -68 -57 -91 -57 -3 0 -5 13 -5 29 0
23 6 30 26 35 27 7 54 56 54 98 0 34 -27 68 -54 68 -30 0 -39 -12 -65 -80 -34
-87 -44 -102 -78 -116 -82 -35 -148 49 -124 157 15 68 101 134 101 78z m3698
-395 c24 -4 32 -10 30 -22 -4 -19 -9 -19 -198 -12 l-115 5 -3 -82 c-3 -77 -4
-83 -24 -83 -20 0 -21 4 -15 68 4 37 7 84 7 105 l0 38 143 -6 c78 -3 157 -8
175 -11z m-216 -379 c56 -19 103 -37 106 -40 2 -2 2 -11 -1 -19 -5 -13 -22
-10 -108 19 -145 49 -186 46 -208 -16 -27 -77 -6 -100 134 -149 73 -25 111
-43 113 -54 5 -23 -9 -21 -130 20 -109 36 -152 65 -160 107 -7 40 12 105 41
136 39 42 82 41 213 -4z m-2507 -705 c3 -6 -32 -66 -80 -135 l-86 -125 47 -32
c26 -18 59 -43 73 -55 22 -19 24 -22 9 -28 -11 -4 -43 12 -93 46 -42 29 -78
56 -81 61 -7 11 178 278 193 278 6 0 15 -5 18 -10z m295 -161 c-9 -15 -15 -17
-31 -9 -15 9 -17 15 -9 31 9 15 15 17 31 9 15 -9 17 -15 9 -31z m1205 10 c9
-28 -14 -44 -34 -24 -12 11 -12 17 -1 29 17 22 27 20 35 -5z m-1250 -71 c3 -7
-26 -72 -63 -145 -54 -106 -70 -130 -82 -123 -13 8 -4 32 52 145 64 127 83
152 93 123z m1374 -112 c74 -111 89 -146 61 -146 -4 0 -45 54 -90 121 -73 107
-90 149 -62 149 4 0 45 -56 91 -124z m-1086 100 c40 -17 64 -43 69 -76 4 -35
-38 -42 -51 -8 -13 34 -35 49 -78 55 -29 4 -42 1 -56 -15 -26 -29 -12 -48 65
-88 99 -53 123 -89 97 -147 -25 -56 -125 -75 -197 -38 -36 19 -54 42 -67 89
-6 19 -3 22 22 22 24 0 31 -6 38 -32 19 -63 145 -79 153 -20 5 31 -12 49 -79
82 -72 37 -103 74 -95 115 13 66 98 96 179 61z m767 -11 c16 -8 34 -24 40 -35
9 -17 7 -22 -12 -29 -17 -7 -27 -5 -38 9 -31 36 -111 33 -137 -6 -23 -36 2
-54 91 -65 108 -13 145 -36 146 -87 1 -108 -190 -163 -260 -75 -25 32 -25 40
1 48 14 5 27 -1 44 -19 34 -36 105 -37 140 -1 14 13 25 28 25 34 0 23 -34 39
-97 46 -91 9 -127 26 -142 64 -11 25 -11 37 0 62 23 58 134 88 199 54z m-320
-40 c0 -11 -20 -15 -97 -17 l-98 -3 -3 -52 -3 -52 93 -3 c79 -3 93 -6 96 -20
3 -16 -6 -18 -92 -18 l-96 0 0 -60 0 -60 105 0 c87 0 105 -3 105 -15 0 -13
-21 -15 -125 -15 l-125 0 0 165 0 165 120 0 c99 0 120 -3 120 -15z"/>
<path d="M2772 3617 c-29 -29 -52 -57 -52 -62 0 -10 76 -45 97 -45 12 0 24
149 12 156 -3 1 -29 -20 -57 -49z"/>
<path d="M1861 3219 c-22 -23 -41 -98 -41 -158 0 -99 -57 -246 -169 -431 l-51
-85 0 -91 c0 -50 6 -112 14 -138 25 -83 122 -216 157 -216 28 0 87 57 94 91 9
40 33 48 57 20 27 -35 23 -85 -12 -136 -40 -59 -39 -96 6 -171 61 -101 122
-152 170 -140 66 17 160 153 269 392 51 113 59 138 63 205 7 115 -12 230 -49
298 -26 51 -100 152 -284 391 -75 97 -166 190 -186 190 -10 0 -27 -10 -38 -21z
m198 -534 c58 -54 67 -79 39 -107 -23 -23 -47 -20 -118 15 -37 18 -46 27 -48
53 -4 36 30 84 59 84 11 0 42 -20 68 -45z"/>
<path d="M1335 2467 c-161 -164 -180 -252 -88 -405 21 -34 95 -133 165 -220
144 -180 167 -219 150 -256 -16 -35 -57 -60 -87 -52 -37 10 -93 64 -127 123
-32 57 -80 103 -107 103 -43 0 -85 -46 -142 -157 -54 -104 -57 -155 -13 -210
42 -51 346 -257 412 -278 50 -16 56 -16 98 0 57 22 102 74 204 240 106 172
123 229 96 335 -24 92 -69 164 -210 340 -155 191 -191 258 -191 349 0 36 4 82
8 103 8 30 5 40 -12 57 -38 38 -60 27 -156 -72z m238 -1079 c9 -11 17 -33 17
-50 0 -34 -39 -78 -70 -78 -32 0 -70 44 -70 80 0 44 42 84 78 76 15 -4 35 -16
45 -28z"/>
<path d="M2636 2450 c-20 -18 -65 -85 -105 -159 -38 -70 -105 -182 -148 -249
-122 -190 -214 -342 -225 -374 -6 -16 -8 -52 -6 -79 6 -59 35 -99 129 -177 35
-29 111 -92 169 -141 58 -48 120 -96 139 -106 96 -49 317 46 351 151 23 70 -7
123 -105 185 -89 56 -195 187 -195 242 0 37 24 83 137 261 114 179 127 206
121 267 -16 158 -167 262 -262 179z"/>
<path d="M2018 1423 c-9 -10 -23 -35 -33 -56 -22 -47 -126 -143 -182 -169 -23
-10 -45 -23 -48 -29 -10 -15 14 -39 39 -39 11 0 40 -9 63 -19 51 -23 82 -78
108 -191 27 -111 63 -170 106 -170 40 0 60 33 89 152 15 64 36 133 46 153 19
40 67 76 127 95 25 8 37 17 37 30 0 13 -12 22 -37 30 -74 23 -143 74 -209 152
-35 43 -71 78 -78 78 -7 0 -20 -8 -28 -17z"/>
<path d="M3445 3032 c-38 -8 -72 -17 -74 -18 -5 -4 47 -91 58 -99 8 -4 101
114 101 129 0 7 4 8 -85 -12z"/>
<path d="M3590 2648 c-63 -16 -118 -32 -122 -36 -13 -13 21 -115 47 -141 21
-22 34 -26 78 -25 59 2 130 32 147 63 20 38 1 172 -24 170 -6 0 -63 -14 -126
-31z"/>
<path d="M3636 2221 c-39 -26 -55 -57 -56 -104 0 -31 7 -46 34 -73 30 -30 40
-34 86 -34 58 0 113 22 135 54 8 11 15 42 15 69 0 40 -5 53 -29 78 -26 26 -36
29 -93 29 -45 0 -71 -6 -92 -19z"/>
</g>
</svg>
